<?xml version="1.0" encoding="UTF-8"?>
<svg id="Layer_2" data-name="Layer 2" xmlns="http://www.w3.org/2000/svg" viewBox="0 0 163.87 63.76">
  <defs>
    <style>
      .cls-1 {
        fill: none;
      }

      .cls-1, .cls-2 {
        stroke-width: 0px;
      }

      .cls-2 {
        fill: #231f20;
      }
    </style>
  </defs>
  <g id="Layer_1-2" data-name="Layer 1">
    <g>
      <rect class="cls-1" width="163.87" height="63.76"/>
      <g>
        <path class="cls-2" d="M33.74,48.63s0,0-.01,0c0,0,0,0,0,0-.15,0-.29-.04-.41-.12l-13.78-7.96c-.25-.15-.41-.42-.41-.71v-15.93c0-.29.16-.56.41-.71l13.8-7.97c.25-.15.56-.15.82,0l13.78,7.96c.12.07.23.17.31.3,0,0,0,0,0,0,0,0,0,0,0,0,0,0,0,.01.01.02,0,0,0,0,0,0,0,0,0,0,0,0,.07.13.11.27.1.41v15.92c0,.29-.16.56-.41.71l-13.78,7.96c-.12.07-.26.11-.41.12,0,0,0,0,0,0,0,0,0,0-.01,0ZM20.76,39.37l12.16,7.02v-7.35l-5.39-3.11c-.25-.15-.41-.42-.41-.71v-6.23l-6.36-3.67v14.04ZM34.55,39.05v7.35l12.16-7.02v-14.04l-6.36,3.67v6.23c0,.29-.16.56-.41.71l-5.39,3.11ZM28.75,34.76l4.17,2.41v-4.81l-4.17-2.41v4.81ZM34.55,32.35v4.81l4.17-2.41v-4.81l-4.17,2.41ZM29.57,28.53l4.17,2.41,4.17-2.41-4.17-2.41-4.17,2.41ZM33.74,24.36c.14,0,.28.04.41.11l5.39,3.11,6.36-3.67-12.16-7.02-12.16,7.02,6.36,3.67,5.39-3.11c.13-.07.27-.11.41-.11Z"/>
        <g>
          <path class="cls-2" d="M55.92,22.63h3.47v7.3h.47l5.96-7.3h4.44l-7.67,9.06,7.93,9.33h-4.57l-6.09-7.46h-.47v7.46h-3.47v-18.39Z"/>
          <path class="cls-2" d="M71.15,34.03v-4.41c0-4.73,2.94-7.36,7.57-7.36s7.57,2.63,7.57,7.36v4.41c0,4.73-2.94,7.36-7.57,7.36s-7.57-2.63-7.57-7.36ZM82.81,34.13v-4.62c0-2.52-1.52-4.15-4.1-4.15s-4.1,1.63-4.1,4.15v4.62c0,2.52,1.52,4.15,4.1,4.15s4.1-1.63,4.1-4.15Z"/>
          <path class="cls-2" d="M89.33,22.63h3.47v18.39h-3.47v-18.39Z"/>
          <path class="cls-2" d="M96.26,22.63h5.51l5.82,16.02h-.61v-16.02h3.42v18.39h-5.51l-5.82-16.02h.61v16.02h-3.42v-18.39Z"/>
          <path class="cls-2" d="M113.22,34.03v-4.41c0-4.73,2.94-7.36,7.57-7.36s7.57,2.63,7.57,7.36v4.41c0,4.73-2.94,7.36-7.57,7.36s-7.57-2.63-7.57-7.36ZM124.89,34.13v-4.62c0-2.52-1.52-4.15-4.1-4.15s-4.1,1.63-4.1,4.15v4.62c0,2.52,1.52,4.15,4.1,4.15s4.1-1.63,4.1-4.15Z"/>
          <path class="cls-2" d="M130.56,35.03v-.74h3.41v.74c0,2.21,1.44,3.31,3.81,3.31s3.55-1.05,3.55-2.52-1.34-2.05-3.7-2.57l-.6-.13c-3.81-.84-6.04-2.13-6.04-5.49s2.55-5.36,6.49-5.36,6.8,2,6.8,5.99v.79h-3.41v-.79c0-2.1-1.29-2.94-3.39-2.94s-3.07.84-3.07,2.21,1.02,2.02,3.23,2.5l.6.13c3.91.84,6.51,2.21,6.51,5.57s-2.71,5.67-6.96,5.67-7.22-2.36-7.22-6.36Z"/>
        </g>
      </g>
    </g>
  </g>
</svg>